<?xml version="1.0" encoding="utf-8"?>
<!-- Generator: Adobe Illustrator 28.3.0, SVG Export Plug-In . SVG Version: 6.00 Build 0)  -->
<svg version="1.1" id="Capa_1" xmlns="http://www.w3.org/2000/svg" xmlns:xlink="http://www.w3.org/1999/xlink" x="0px" y="0px"
	 viewBox="0 0 168.65 89.22" style="enable-background:new 0 0 168.65 89.22;" xml:space="preserve">
<style type="text/css">
	.st0{fill:#1D1D1B;}
	.st1{fill:#FFEC66;}
	.st2{fill:#FFFFFF;}
</style>
<path class="st0" d="M123.33,86.22H45.01c-22.98,0-41.61-18.63-41.61-41.61v0C3.41,21.63,22.03,3,45.01,3h78.31
	c22.98,0,41.61,18.63,41.61,41.61v0C164.93,67.59,146.31,86.22,123.33,86.22z"/>
<g>
	<circle class="st1" cx="45.3" cy="44.57" r="38.93"/>
	<path class="st2" d="M50.33,22.7c-3.15-5.19-5.27-8.67-4.7-9.13c0.61-0.49,4.32,2.37,6.78,6.26c2.79,4.41,3.61,9.6,2.87,9.91
		C54.74,29.97,53.27,27.54,50.33,22.7z"/>
	<path class="st2" d="M21.11,55.16c2.3-0.37,3.15,7.1,9.65,14.09c7.27,7.81,16.29,9.31,15.91,10.43c-0.31,0.92-6.43,0.2-12.26-2.09
		c-4.1-1.61-14.23-5.59-15.65-13.83C18.1,59.91,19.39,55.43,21.11,55.16z"/>
</g>
</svg>
