<?xml version="1.0" encoding="UTF-8"?>
<svg id="Capa_1" xmlns="http://www.w3.org/2000/svg" version="1.1" viewBox="0 0 500 263">
  <!-- Generator: Adobe Illustrator 29.1.0, SVG Export Plug-In . SVG Version: 2.1.0 Build 142)  -->
  <defs>
    <style>
      .st0 {
        font-family: KozGoPr6N-Regular-90ms-RKSJ-H, 'Kozuka Gothic Pr6N';
        font-size: 33.2px;
        letter-spacing: .6em;
      }

      .st0, .st1, .st2 {
        isolation: isolate;
      }

      .st1 {
        font-size: 38.9px;
      }

      .st1, .st2 {
        font-family: ArialMT, Arial;
      }

      .st3 {
        fill:rgba(71, 102, 59, 0.81);
      }

      .st2 {
        font-size: 144.3px;
      }
    </style>
  </defs>
  <text class="st2" transform="translate(21.4 132)"><tspan x="0" y="0">FULL</tspan></text>
  <text class="st1" transform="translate(330.5 95.3)"><tspan x="0" y="0">STACK</tspan></text>
  <g>
    <path d="M47.4,176.2c-1,.9-2.7,1.4-5.1,1.4h-8v-27.2h7.5c2.3,0,4.1.5,5.3,1.4,1.2.9,1.8,2.5,1.8,4.6v15c0,2.2-.5,3.8-1.5,4.7ZM44.8,154.1c-.5-.5-1.2-.8-2.1-.8h-5v21.4h5c1,0,1.7-.2,2.2-.7s.7-1.2.7-2.2v-15.7c0-.9-.3-1.5-.8-2Z"/>
    <path d="M100.2,150.4v2.8h-9.6v8.9h8.6v2.8h-8.6v9.8h9.6v2.8h-13v-27.2h13Z"/>
    <path d="M137.5,150.4h3.4l4.7,23.8,5-23.8h3.3l-6.1,27.2h-4.6l-5.7-27.2Z"/>
    <path d="M204.4,150.4v2.8h-9.6v8.9h8.6v2.8h-8.6v9.8h9.6v2.8h-13v-27.2h13Z"/>
    <path d="M247.4,150.4v24.2h8.7v2.9h-12.1v-27.2h3.4Z"/>
    <path d="M308,176c-1.2,1.1-2.9,1.6-5.2,1.6h-1.5c-2.2,0-4-.6-5.2-1.6-1.2-1.1-1.8-2.8-1.8-5v-14c0-2.2.6-3.9,1.8-5,1.2-1.1,2.9-1.6,5.2-1.6h1.5c2.2,0,4,.6,5.2,1.6,1.2,1.1,1.8,2.8,1.8,5v14c0,2.2-.6,3.9-1.8,5ZM305.6,154.2c-.6-.6-1.4-.9-2.3-.9h-2.3c-1,0-1.7.3-2.3.9-.6.6-.9,1.3-.9,2.1v15.5c0,.8.3,1.5.9,2.1.6.6,1.4.9,2.3.9h2.3c1,0,1.7-.3,2.3-.9.6-.6.9-1.3.9-2.1v-15.5c0-.8-.3-1.5-.9-2.1Z"/>
    <path d="M359.5,165.6c-1.1,1-2.8,1.5-4.9,1.5h-4v10.6h-3.4v-27.2h7.4c2.2,0,3.9.5,5,1.5s1.7,2.5,1.7,4.6v4.4c0,2.1-.6,3.6-1.7,4.6ZM357.1,154c-.5-.4-1.2-.7-2.2-.7h-4.4v10.8h4.4c1,0,1.7-.2,2.2-.7.5-.4.7-1.2.7-2.2v-5.2c0-1-.2-1.7-.7-2.1Z"/>
    <path d="M412.7,150.4v2.8h-9.6v8.9h8.6v2.8h-8.6v9.8h9.6v2.8h-13v-27.2h13Z"/>
    <path d="M454,166.4v11.3h-3.4v-27.2h7.3c2.2,0,3.9.5,5,1.5s1.7,2.5,1.7,4.6v3.7c0,2.9-1.2,4.8-3.5,5.5l5.4,11.9h-3.7l-5-11.3h-3.8ZM460.5,154c-.5-.4-1.2-.7-2.2-.7h-4.4v10.1h4.4c1,0,1.7-.2,2.2-.7.5-.4.7-1.2.7-2.2v-4.5c0-1-.2-1.7-.7-2.1Z"/>
  </g>
  <text class="st0" transform="translate(20.7 218.4)"><tspan x="0" y="0">フルスタック開発者</tspan></text>
  <path class="st3" d="M251.8,106.8h-49c-5.5,0-9.9-4.4-9.9-9.9v-24.6c0-5.5,4.4-10,9.9-10h49c5.5,0,9.9,4.5,9.9,10v24.6c0,5.5-4.5,9.9-9.9,9.9Z"/>
  <g>
    <path d="M238,96.5c0,.6,0,1.1-.2,1.4-.1.4-.3.7-.5.9-.2.2-.5.3-.8.3s-.6,0-.8-.2-.4-.4-.5-.8c-.1-.4-.2-.8-.2-1.5h-3.5c0,1.2.2,2.2.6,3,.4.8,1,1.4,1.8,1.8.8.4,1.6.6,2.6.6s1.8-.2,2.5-.7,1.3-1.1,1.8-1.9.7-1.8.7-3v-11.9h-3.5v11.9Z"/>
    <path d="M251.6,88.8c-.2,0-.4,0-.5,0-.5,0-.9.1-1.2.4-.4.3-.7.7-.9,1.2h0v-1.4h-3.2v12.8h3.3v-8.5c0-.2.2-.4.3-.6.2-.2.4-.4.6-.5.3-.1.6-.2.9-.2s.3,0,.6,0c.2,0,.4,0,.5,0v-3.3c0,0-.2,0-.4,0Z"/>
  </g>
</svg>