<?xml version="1.0" encoding="utf-8"?>
<!-- Generator: Adobe Illustrator 28.3.0, SVG Export Plug-In . SVG Version: 6.00 Build 0)  -->
<svg version="1.1" id="Capa_1" xmlns="http://www.w3.org/2000/svg" xmlns:xlink="http://www.w3.org/1999/xlink" x="0px" y="0px"
	 viewBox="0 0 500 262.96" style="enable-background:new 0 0 500 262.96;" xml:space="preserve">
<style type="text/css">
	.st0{font-family:'ArialMT';}
	.st1{font-size:144.3359px;}
	.st2{font-size:38.8691px;}
	.st3{font-family:'KozGoPr6N-Regular-90ms-RKSJ-H';}
	.st4{font-size:33.229px;}
	.st5{letter-spacing:19;}
	.st6{fill:#F7E018;}
</style>
<text transform="matrix(1 0 0 1 21.3858 132.0087)" class="st0 st1">FULL</text>
<text transform="matrix(1 0 0 1 330.5091 95.3437)" class="st0 st2">STACK</text>
<g>
	<g>
		<path d="M47.43,176.22c-1.02,0.93-2.71,1.4-5.07,1.4h-8.01v-27.21h7.54c2.33,0,4.09,0.47,5.29,1.42c1.19,0.95,1.79,2.5,1.79,4.65
			v15C48.97,173.71,48.46,175.29,47.43,176.22z M44.81,154.08c-0.52-0.51-1.21-0.76-2.06-0.76h-5.01v21.38h4.97
			c0.99,0,1.71-0.23,2.18-0.68c0.47-0.45,0.7-1.17,0.7-2.16v-15.74C45.59,155.27,45.33,154.59,44.81,154.08z"/>
		<path d="M100.24,150.41v2.84h-9.6v8.9h8.63v2.84h-8.63v9.79h9.6v2.84H87.26v-27.21H100.24z"/>
		<path d="M137.51,150.41h3.42l4.66,23.79l5.01-23.79h3.34l-6.1,27.21h-4.62L137.51,150.41z"/>
		<path d="M204.41,150.41v2.84h-9.6v8.9h8.63v2.84h-8.63v9.79h9.6v2.84h-12.98v-27.21H204.41z"/>
		<path d="M247.36,150.41v24.25h8.67v2.95h-12.05v-27.21H247.36z"/>
		<path d="M308.05,175.97c-1.2,1.1-2.93,1.65-5.19,1.65h-1.55c-2.25,0-3.98-0.55-5.19-1.65c-1.21-1.1-1.81-2.75-1.81-4.96v-13.99
			c0-2.2,0.6-3.85,1.81-4.96c1.21-1.1,2.93-1.65,5.19-1.65h1.55c2.25,0,3.98,0.55,5.19,1.65c1.21,1.1,1.81,2.75,1.81,4.96v13.99
			C309.86,173.21,309.26,174.87,308.05,175.97z M305.58,154.22c-0.6-0.57-1.37-0.85-2.33-0.85h-2.33c-0.96,0-1.74,0.29-2.33,0.85
			c-0.6,0.57-0.89,1.26-0.89,2.06v15.47c0,0.8,0.3,1.49,0.89,2.06c0.6,0.57,1.37,0.86,2.33,0.86h2.33c0.96,0,1.74-0.29,2.33-0.86
			c0.6-0.57,0.89-1.26,0.89-2.06v-15.47C306.48,155.48,306.18,154.79,305.58,154.22z"/>
		<path d="M359.53,165.55c-1.11,1-2.76,1.5-4.94,1.5h-4.04v10.57h-3.38v-27.21h7.35c2.2,0,3.87,0.49,5,1.46
			c1.13,0.97,1.69,2.51,1.69,4.61v4.43C361.2,163,360.65,164.55,359.53,165.55z M357.14,153.99c-0.45-0.44-1.17-0.66-2.16-0.66
			h-4.43v10.81h4.43c0.98,0,1.7-0.23,2.16-0.68c0.45-0.45,0.68-1.17,0.68-2.16v-5.17C357.82,155.14,357.6,154.43,357.14,153.99z"/>
		<path d="M412.74,150.41v2.84h-9.6v8.9h8.63v2.84h-8.63v9.79h9.6v2.84h-12.98v-27.21H412.74z"/>
		<path d="M453.95,166.35v11.27h-3.38v-27.21h7.31c2.2,0,3.87,0.49,5,1.46c1.13,0.97,1.69,2.51,1.69,4.61v3.73
			c0,2.93-1.17,4.75-3.5,5.48l5.4,11.93h-3.69l-5.01-11.27H453.95z M460.5,153.99c-0.45-0.44-1.17-0.66-2.16-0.66h-4.39v10.11h4.39
			c0.98,0,1.7-0.23,2.16-0.68c0.45-0.45,0.68-1.17,0.68-2.16v-4.47C461.17,155.14,460.95,154.43,460.5,153.99z"/>
	</g>
</g>
<text transform="matrix(1 0 0 1 20.7203 218.425)" class="st3 st4 st5">フルスタック開発者</text>
<path class="st6" d="M251.8,106.81h-48.98c-5.49,0-9.95-4.45-9.95-9.95v-24.6c0-5.49,4.45-9.95,9.95-9.95h48.98
	c5.49,0,9.95,4.45,9.95,9.95v24.6C261.75,102.35,257.29,106.81,251.8,106.81z"/>
<g>
	<path d="M237.97,96.48c0,0.57-0.06,1.05-0.18,1.45c-0.12,0.4-0.29,0.7-0.51,0.91c-0.22,0.21-0.5,0.31-0.82,0.31
		c-0.3,0-0.57-0.08-0.8-0.23c-0.23-0.15-0.41-0.41-0.54-0.76c-0.13-0.36-0.19-0.84-0.19-1.46h-3.48c0,1.21,0.22,2.21,0.65,2.99
		c0.43,0.79,1.03,1.38,1.78,1.76c0.75,0.38,1.61,0.57,2.58,0.57c0.94,0,1.78-0.22,2.53-0.66c0.75-0.44,1.34-1.08,1.78-1.91
		c0.44-0.83,0.66-1.82,0.66-2.98V84.56h-3.46V96.48z"/>
	<path d="M251.61,88.79c-0.18-0.03-0.35-0.04-0.5-0.04c-0.47,0-0.88,0.14-1.25,0.43c-0.37,0.28-0.68,0.68-0.94,1.2c0,0,0,0,0,0
		l-0.09-1.4h-3.12v12.81h3.31v-8.46c0.08-0.21,0.17-0.39,0.29-0.55c0.17-0.23,0.38-0.4,0.65-0.51c0.26-0.11,0.58-0.17,0.95-0.17
		c0.16,0,0.34,0.01,0.55,0.02c0.21,0.02,0.39,0.04,0.54,0.07l0.05-3.3C251.93,88.85,251.79,88.82,251.61,88.79z"/>
</g>
</svg>
