<?xml version="1.0" encoding="utf-8"?>
<!-- Generator: Adobe Illustrator 28.3.0, SVG Export Plug-In . SVG Version: 6.00 Build 0)  -->
<svg version="1.1" id="Capa_1" xmlns="http://www.w3.org/2000/svg" xmlns:xlink="http://www.w3.org/1999/xlink" x="0px" y="0px"
	 viewBox="0 0 100 100" style="enable-background:new 0 0 100 100;" xml:space="preserve">
<style type="text/css">
	.st0{fill:#FFFFFF;}
</style>
<g>
	<g>
		<polygon class="st0" points="17.34,58.08 8.39,58.08 37.63,87.32 37.63,78.36 		"/>
		<polygon class="st0" points="32.22,38.73 32.95,37.99 45.68,25.26 45.68,4.63 22.63,27.68 21.89,28.42 21.16,29.15 0.31,50 
			7.14,56.83 17.86,56.83 17.86,56.83 17.86,56.83 38.88,77.84 38.88,77.84 38.88,88.56 45.68,95.37 45.68,74.74 20.94,50 
			31.48,39.46 		"/>
	</g>
	<g>
		<polygon class="st0" points="82.66,58.08 91.61,58.08 62.37,87.32 62.37,78.36 		"/>
		<polygon class="st0" points="67.78,38.73 67.05,37.99 54.32,25.26 54.32,4.63 77.37,27.68 78.11,28.42 78.84,29.15 99.69,50 
			92.86,56.83 82.14,56.83 82.14,56.83 82.14,56.83 61.12,77.84 61.12,77.84 61.12,88.56 54.32,95.37 54.32,74.74 79.06,50 
			68.52,39.46 		"/>
	</g>
</g>
</svg>
