<?xml version="1.0" encoding="utf-8"?>
<!-- Generator: Adobe Illustrator 28.3.0, SVG Export Plug-In . SVG Version: 6.00 Build 0)  -->
<svg version="1.1" id="Capa_1" xmlns="http://www.w3.org/2000/svg" xmlns:xlink="http://www.w3.org/1999/xlink" x="0px" y="0px"
	 viewBox="0 0 168.65 89.22" style="enable-background:new 0 0 168.65 89.22;" xml:space="preserve">
<style type="text/css">
	.st0{fill:#919191;}
	.st1{fill:#F4F4F4;}
	.st2{fill:#C9C9C9;}
</style>
<path class="st0" d="M123.33,86.22H45.01c-22.98,0-41.61-18.63-41.61-41.61v0C3.41,21.63,22.03,3,45.01,3h78.31
	c22.98,0,41.61,18.63,41.61,41.61v0C164.93,67.59,146.31,86.22,123.33,86.22z"/>
<g>
	<circle class="st1" cx="123.1" cy="44.61" r="38.93"/>
	<path class="st2" d="M97.52,22.54c-4.21,1.54-8.64,5.46-7.86,7.86c0.59,1.83,3.55,0.75,7.41,3.82c2.37,1.89,4,4.47,4.72,5.61
		c2,3.18,1.84,4.4,2.92,4.72c2.75,0.81,8.74-5.69,7.41-9.43c-1.34-3.77-9.42-2.76-10.33-6.51c-0.63-2.58,2.75-4.87,1.8-6.29
		C102.72,21.03,99.27,21.89,97.52,22.54z"/>
	<path class="st2" d="M140.52,55.47c-4.71,2.51-8.94,8.38-7.83,14.09c0.1,0.52,0.95,4.62,3.39,5.22c3.22,0.79,6.9-5.07,7.3-5.74
		c1.05-1.71,1.47-3.12,2.09-5.22c1.17-3.94,2.39-8.08,0.78-9.39C144.76,53.2,141.46,54.96,140.52,55.47z"/>
	<path class="st2" d="M153.79,54.07c-1.81,0.97-3.44,3.23-3.01,5.43c0.04,0.2,0.36,1.78,1.31,2.01c1.24,0.3,2.66-1.95,2.81-2.21
		c0.4-0.66,0.56-1.2,0.8-2.01c0.45-1.52,0.92-3.11,0.3-3.62C155.43,53.2,154.16,53.88,153.79,54.07z"/>
	<path class="st2" d="M109.94,59.28c-6.2,5.29-10.67,9.1-9.83,12.99c0.76,3.53,5.47,5.23,9.48,6.67c4.68,1.68,11.53,4.15,16.15,0.35
		c5.56-4.57,2.98-14.16,2.81-14.75c-1.12-3.94-4.46-10.18-9.48-10.54C116.4,53.82,114.21,55.64,109.94,59.28z"/>
	<path class="st2" d="M100.77,49.07c-3.49-0.99-6.02-1.71-7.25-0.43c-1.12,1.15-0.59,3.32-0.13,5.17c0.53,2.15,1.31,5.31,3.87,6.08
		c3.07,0.93,5.99-2.4,6.17-2.61c1.18-1.39,2.67-4.17,1.56-6.13C104.39,50.11,103.17,49.75,100.77,49.07z"/>
</g>
</svg>
