<?xml version="1.0" encoding="UTF-8"?>
<svg id="Capa_1" data-name="Capa 1" xmlns="http://www.w3.org/2000/svg" version="1.1" viewBox="0 0 800 800">
  <defs>
    <style>
      .cls-1 {
        fill: #fff;
        stroke-width: 0px;
      }
    </style>
  </defs>
  <path class="cls-1" d="M229.1,707.7c53.2,29.9,113.4,45.6,174.9,45.6,197.2,0,357.7-160.5,357.7-357.7S601.2,37.9,404,37.9,46.3,198.4,46.3,395.6s17,126.4,49.2,181.2l-50.2,178.2,183.8-47.3ZM404,98.6c163.8,0,297,133.2,297,297s-133.2,297-297,297-108.1-15-154.5-43.3l-10.9-6.7-106.2,27.3,28.9-102.6-7.4-11.5c-30.7-47.8-46.9-103.2-46.9-160.3,0-163.8,133.2-297,297-297Z"/>
  <path class="cls-1" d="M466,562.2c35,9.9,62.5,3.2,83.8-10.4,16.8-10.8,28.4-28,32.6-47.6l3.7-17.3c1.2-5.5-1.6-11.1-6.7-13.4l-78.4-36.2c-5.1-2.3-11.1-.9-14.6,3.6l-30.8,39.9c-2.3,3-6.3,4.2-9.9,2.9-21.1-7.4-91.7-37-130.5-111.7-1.7-3.2-1.3-7.2,1.1-9.9l29.4-34c3-3.5,3.8-8.4,2-12.6l-33.8-79.1c-1.8-4.2-5.8-7-10.4-7.3l-23.2-1.3c-7.3-.4-14.4,2-20,6.8-11.3,9.8-29.2,28.7-34.8,53.3-8.2,36.7,4.5,81.7,37.5,126.6,33,44.9,94.4,116.9,203,147.6Z"/>
</svg>